<?xml version="1.0" encoding="UTF-8" standalone="no"?> <!-- Created with Vectornator for iOS (http://vectornator.io/) --><!DOCTYPE svg PUBLIC "-//W3C//DTD SVG 1.1//EN" "http://www.w3.org/Graphics/SVG/1.1/DTD/svg11.dtd">
<svg height="100%" style="fill-rule:evenodd;clip-rule:evenodd;stroke-linecap:round;stroke-linejoin:round;" xmlnsXlink="http://www.w3.org/1999/xlink" xmlns="http://www.w3.org/2000/svg" xmlSpace="preserve" width="100%" xmlnsVectornator="http://vectornator.io" version="1.1" viewBox="0 0 1024 1024">
<metadata>
<vectornatorSetting key="DimensionsVisible" value="1"/>
<vectornatorSetting key="PencilOnly" value="0"/>
<vectornatorSetting key="SnapToPoints" value="0"/>
<vectornatorSetting key="OutlineMode" value="0"/>
<vectornatorSetting key="CMYKEnabledKey" value="0"/>
<vectornatorSetting key="RulersVisible" value="1"/>
<vectornatorSetting key="SnapToEdges" value="0"/>
<vectornatorSetting key="GuidesVisible" value="1"/>
<vectornatorSetting key="DisplayWhiteBackground" value="0"/>
<vectornatorSetting key="doHistoryDisabled" value="0"/>
<vectornatorSetting key="SnapToGuides" value="1"/>
<vectornatorSetting key="TimeLapseWatermarkDisabled" value="0"/>
<vectornatorSetting key="Units" value="Pixels"/>
<vectornatorSetting key="DynamicGuides" value="0"/>
<vectornatorSetting key="IsolateActiveLayer" value="0"/>
<vectornatorSetting key="SnapToGrid" value="0"/>
</metadata>
<defs/>
<g id="图层 1" vectornatorLayerName="图层 1">
<path d="M120+544C53.7258+544+0+594.368+0+656.5L0+911.5C0+973.632+53.7258+1024+120+1024L904+1024C970.274+1024+1024+973.632+1024+911.5L1024+656.5C1024+594.368+970.274+544+904+544L640.469+544L568.531+751.812L433.375+544L310.844+544L157+894.594L263.375+544L120+544Z" opacity="1" fill="#ffffff"/>
<path d="M120+0C53.7258+0+0+50.368+0+112.5L0+367.5C0+429.632+53.7258+480+120+480L282.812+480L337.188+300.812L432.312+480L602.812+480L743.938+245L662.594+480L904+480C970.274+480+1024+429.632+1024+367.5L1024+112.5C1024+50.368+970.274+0+904+0L120+0Z" opacity="1" fill="#006400"/>
</g>
</svg>
